<svg width="56" height="56" viewBox="0 0 56 56" fill="none" xmlns="http://www.w3.org/2000/svg">
	                        <g clip-path="url(#clip0)">
	                        <path fill-rule="evenodd" clip-rule="evenodd" d="M48.4 40.5H7.3L0.5 51.5H55.5L48.4 40.5Z" fill="white" stroke="black" stroke-linecap="round" stroke-linejoin="round"></path>
	                        <path fill-rule="evenodd" clip-rule="evenodd" d="M41 48.5H39H41ZM37 48.5H35H37ZM33 48.5H31H33ZM29 48.5H27H29ZM25 48.5H23H25ZM21 48.5H19H21ZM17 48.5H15H17ZM13 48.5H11H13ZM9 48.5H7H9Z" fill="white"></path>
	                        <path d="M9 48.5H7M41 48.5H39H41ZM37 48.5H35H37ZM33 48.5H31H33ZM29 48.5H27H29ZM25 48.5H23H25ZM21 48.5H19H21ZM17 48.5H15H17ZM13 48.5H11H13Z" stroke="black" stroke-linecap="round" stroke-linejoin="round"></path>
	                        <path fill-rule="evenodd" clip-rule="evenodd" d="M45 48.5H43H45Z" fill="white"></path>
	                        <path d="M45 48.5H43" stroke="black" stroke-linecap="round" stroke-linejoin="round"></path>
	                        <path fill-rule="evenodd" clip-rule="evenodd" d="M49 48.5H47H49Z" fill="white"></path>
	                        <path d="M49 48.5H47" stroke="black" stroke-linecap="round" stroke-linejoin="round"></path>
	                        <path fill-rule="evenodd" clip-rule="evenodd" d="M42 45.5C42 45.5 41.7 45.5 40 45.5H42ZM38 45.5C37.2 45.5 37 45.5 36 45.5H38ZM34 45.5C33.2 45.5 33 45.5 32.1 45.5H34ZM30 45.5H28H30ZM26 45.5H24H26ZM22 45.5H20H22ZM18 45.5H16H18ZM14 45.5H12H14ZM10 45.5H8H10Z" fill="white"></path>
	                        <path d="M10 45.5H8M42 45.5C42 45.5 41.7 45.5 40 45.5H42ZM38 45.5C37.2 45.5 37 45.5 36 45.5H38ZM34 45.5C33.2 45.5 33 45.5 32.1 45.5H34ZM30 45.5H28H30ZM26 45.5H24H26ZM22 45.5H20H22ZM18 45.5H16H18ZM14 45.5H12H14Z" stroke="black" stroke-linecap="round" stroke-linejoin="round"></path>
	                        <path fill-rule="evenodd" clip-rule="evenodd" d="M46 45.5H44H46Z" fill="white"></path>
	                        <path d="M46 45.5H44" stroke="black" stroke-linecap="round" stroke-linejoin="round"></path>
	                        <path fill-rule="evenodd" clip-rule="evenodd" d="M45 42.5H43H45ZM41 42.5H39H41ZM37 42.5H35H37ZM33 42.5H31H33ZM29 42.5H27H29ZM25 42.5H23H25ZM21 42.5H19H21ZM17 42.5H15H17ZM13 42.5H11H13Z" fill="white"></path>
	                        <path d="M13 42.5H11M45 42.5H43H45ZM41 42.5H39H41ZM37 42.5H35H37ZM33 42.5H31H33ZM29 42.5H27H29ZM25 42.5H23H25ZM21 42.5H19H21ZM17 42.5H15H17Z" stroke="black" stroke-linecap="round" stroke-linejoin="round"></path>
	                        <path fill-rule="evenodd" clip-rule="evenodd" d="M0.5 51.5H55.5V55.6H0.5V51.5Z" fill="white" stroke="black" stroke-linecap="round" stroke-linejoin="round"></path>
	                        <path fill-rule="evenodd" clip-rule="evenodd" d="M19.4 31.5H36.5L39 35.5H17L19.4 31.5Z" fill="white" stroke="black" stroke-linecap="round" stroke-linejoin="round"></path>
	                        <path fill-rule="evenodd" clip-rule="evenodd" d="M23.5 23.5H32.5V32.5H23.5V23.5Z" fill="white" stroke="black" stroke-linecap="round" stroke-linejoin="round"></path>
	                        <path fill-rule="evenodd" clip-rule="evenodd" d="M6.5 6.5H48.5V28.5H6.5V6.5Z" fill="white" stroke="black" stroke-linecap="round" stroke-linejoin="round"></path>
	                        <path fill-rule="evenodd" clip-rule="evenodd" d="M20.5001 16C17.4001 15.9 15.0001 13.3 15.1001 10.2C15.2001 7.1 17.8001 4.7 20.9001 4.8H21.0001C21.6001 1.7 24.6001 -0.400002 27.8001 0.199998C29.4001 0.499998 30.8001 1.5 31.7001 2.9C35.3001 1.9 39.0001 4.1 40.0001 7.7C41.0001 11.3 38.8001 15 35.2001 16C34.4001 16 20.5001 16 20.5001 16Z" fill="url(#paint0_linear_60)"></path>
	                        </g>
	                        <defs>
	                        <linearGradient id="paint0_linear_60" x1="15.0971" y1="8.0488" x2="40.2418" y2="8.0488" gradientUnits="userSpaceOnUse">
	                        <stop stop-color="#1E51FA"></stop>
	                        <stop offset="1" stop-color="#008AFC"></stop>
	                        </linearGradient>
	                        <clipPath id="clip0">
	                        <rect width="56" height="56" fill="white"></rect>
	                        </clipPath>
	                        </defs>
	                        </svg>