<svg width="56" height="56" viewBox="0 0 56 56" fill="none" xmlns="http://www.w3.org/2000/svg">
	                        <g clip-path="url(#clip0)">
	                        <path fill-rule="evenodd" clip-rule="evenodd" d="M14.1 19.5H43L55.6 30.5L0.599976 30.4L14.1 19.5Z" fill="white" stroke="black" stroke-linecap="round" stroke-linejoin="round"></path>
	                        <path d="M17.6 22C18.5942 22 19.4 21.7761 19.4 21.5C19.4 21.2239 18.5942 21 17.6 21C16.6059 21 15.8 21.2239 15.8 21.5C15.8 21.7761 16.6059 22 17.6 22Z" fill="#0643FB"></path>
	                        <path d="M39.9 22C40.8941 22 41.7 21.7761 41.7 21.5C41.7 21.2239 40.8941 21 39.9 21C38.9059 21 38.1 21.2239 38.1 21.5C38.1 21.7761 38.9059 22 39.9 22Z" fill="#0643FB"></path>
	                        <path fill-rule="evenodd" clip-rule="evenodd" d="M11.2 27C12.2 27 13.7 27.2 13.7 27.5C13.7 27.8 12.2 28 11.2 28C10.2 28 8.69995 27.8 8.69995 27.5C8.69995 27.2 10.3 27 11.2 27Z" fill="#0643FB"></path>
	                        <path fill-rule="evenodd" clip-rule="evenodd" d="M46.3 27C47.3 27 48.8 27.2 48.8 27.5C48.8 27.8 47.2 28 46.3 28C45.4 28 43.8 27.8 43.8 27.5C43.8 27.2 45.3 27 46.3 27Z" fill="#0643FB"></path>
	                        <path fill-rule="evenodd" clip-rule="evenodd" d="M0.5 30.4V40.4H55.5V30.4H0.5Z" fill="white" stroke="black" stroke-linecap="round" stroke-linejoin="round"></path>
	                        <path fill-rule="evenodd" clip-rule="evenodd" d="M11 31V35H13V31H11ZM14 31V35H16V31H14ZM17 31V35H19V31H17ZM20 31V35H22V31H20ZM23 31V35H25V31H23ZM30 31V35H32V31H30ZM33 31V35H35V31H33Z" fill="url(#paint0_linear_63)"></path>
	                        <path fill-rule="evenodd" clip-rule="evenodd" d="M0.5 45.5V55.5H55.5V45.5H0.5Z" fill="white" stroke="black" stroke-linecap="round" stroke-linejoin="round"></path>
	                        <path fill-rule="evenodd" clip-rule="evenodd" d="M11 46V50H13V46H11ZM14 46V50H16V46H14ZM17 46V50H19V46H17ZM20 46V50H22V46H20ZM23 46V50H25V46H23ZM30 46V50H32V46H30ZM33 46V50H35V46H33Z" fill="url(#paint1_linear_63)"></path>
	                        <path d="M0.5 45.5L7 40.5H49L55.5 45.5H0.5Z" stroke="black" stroke-linecap="round" stroke-linejoin="round"></path>
	                        <path fill-rule="evenodd" clip-rule="evenodd" d="M44.5 6L37.5 15L30.5 6H36V1H39V6H44.5Z" fill="url(#paint2_linear_63)"></path>
	                        <path fill-rule="evenodd" clip-rule="evenodd" d="M26.5 10L19.5 1L12.5 10H18V15H21V10H26.5Z" fill="url(#paint3_linear_63)"></path>
	                        </g>
	                        <defs>
	                        <linearGradient id="paint0_linear_63" x1="11" y1="33" x2="35" y2="33" gradientUnits="userSpaceOnUse">
	                        <stop stop-color="#1E51FA"></stop>
	                        <stop offset="1" stop-color="#008AFC"></stop>
	                        </linearGradient>
	                        <linearGradient id="paint1_linear_63" x1="11" y1="48" x2="35" y2="48" gradientUnits="userSpaceOnUse">
	                        <stop stop-color="#1E51FA"></stop>
	                        <stop offset="1" stop-color="#008AFC"></stop>
	                        </linearGradient>
	                        <linearGradient id="paint2_linear_63" x1="30.5" y1="8" x2="44.48" y2="8" gradientUnits="userSpaceOnUse">
	                        <stop stop-color="#1E51FA"></stop>
	                        <stop offset="1" stop-color="#008AFC"></stop>
	                        </linearGradient>
	                        <linearGradient id="paint3_linear_63" x1="12.5" y1="8" x2="26.5" y2="8" gradientUnits="userSpaceOnUse">
	                        <stop stop-color="#1E51FA"></stop>
	                        <stop offset="1" stop-color="#008AFC"></stop>
	                        </linearGradient>
	                        <clipPath id="clip0">
	                        <rect width="56" height="56" fill="white"></rect>
	                        </clipPath>
	                        </defs>
	                        </svg>