<svg width="80" height="80" viewBox="0 0 80 80" fill="none" xmlns="http://www.w3.org/2000/svg">
	                <path fill-rule="evenodd" clip-rule="evenodd" d="M20 52.5H60L78.5 65.5H1.5L20 52.5Z" fill="white" stroke="black" stroke-linecap="round" stroke-linejoin="round"></path>
	                <path fill-rule="evenodd" clip-rule="evenodd" d="M1.5 65.5V79.5H78.5V65.5H1.5Z" fill="white" stroke="black" stroke-linecap="round" stroke-linejoin="round"></path>
	                <path fill-rule="evenodd" clip-rule="evenodd" d="M69.5 73.5H72.5H69.5Z" fill="white"></path>
	                <path d="M69.5 73.5H72.5" stroke="#0072FC" stroke-linecap="round" stroke-linejoin="round"></path>
	                <path fill-rule="evenodd" clip-rule="evenodd" d="M61.5 73.5H64.5H61.5Z" fill="white"></path>
	                <path d="M61.5 73.5H64.5" stroke="#0072FC" stroke-linecap="round" stroke-linejoin="round"></path>
	                <path fill-rule="evenodd" clip-rule="evenodd" d="M20 27.5H60L78.5 14.5H1.5L20 27.5Z" fill="white" stroke="black" stroke-linecap="round" stroke-linejoin="round"></path>
	                <path fill-rule="evenodd" clip-rule="evenodd" d="M1.5 14.5V0.5H78.5V14.5H1.5Z" fill="white" stroke="black" stroke-linecap="round" stroke-linejoin="round"></path>
	                <path fill-rule="evenodd" clip-rule="evenodd" d="M69.5 6.5H72.5H69.5Z" fill="white"></path>
	                <path d="M69.5 6.5H72.5" stroke="#0072FC" stroke-linecap="round" stroke-linejoin="round"></path>
	                <path fill-rule="evenodd" clip-rule="evenodd" d="M61.5 6.5H64.5H61.5Z" fill="white"></path>
	                <path d="M61.5 6.5H64.5" stroke="#0072FC" stroke-linecap="round" stroke-linejoin="round"></path>
	                <path fill-rule="evenodd" clip-rule="evenodd" d="M40.2 22C49.7 22 57.5 29.7 57.5 39.3C57.5 48.9 49.8 56.6 40.2 56.6C30.7 56.6 22.9 48.9 22.9 39.3C23 29.7 30.7 22 40.2 22Z" fill="url(#paint0_linear_1)"></path>
	                <path fill-rule="evenodd" clip-rule="evenodd" d="M42.3 49.2L38.5 44L39.4001 39.5L38.1 39.4C38.3 39.2 38.6 39 39 39C38.8 39 42.2001 38.4 42.2001 38.4L44.8 38.7L49 41.3L49.1 42.6L53.3 43.8L53.4001 45L51 49.2C51 49.2 43.4001 55.3 41.9001 55.8L41.4001 54.9L42.3 49.2ZM46 25L47 27L44.3 26.6L45.9001 27.8L41.9001 29.1L39.3 31.6L39 33.9L38 32C37 32 35.9001 32.1 34.9001 32.2C34.1001 32.6 34.2001 35.1 34.2001 35.1L36.4001 36.4L37.8 36.8V39.4L34.6 36.7L33.7001 36.9C33.7001 36.9 31 33.7 30.9 33.5C30.7 33.1 30.5 32.6 30.3 32.2L30.6 28.7L33.9001 24.1C34.9001 23.6 36 23.1 37.1 22.8H39.8L46 25Z" fill="white"></path>
	                <defs>
	                <linearGradient id="paint0_linear_1" x1="22.972" y1="39.2715" x2="57.524" y2="39.2715" gradientUnits="userSpaceOnUse">
	                <stop stop-color="#1E51FA"></stop>
	                <stop offset="0.9941" stop-color="#008AFC"></stop>
	                </linearGradient>
	                </defs>
	                </svg>