<svg width="80" height="80" viewBox="0 0 80 80" fill="none" xmlns="http://www.w3.org/2000/svg">
	                    <g clip-path="url(#clip0)">
	                        <g clip-path="url(#clip1)">
	                            <path fill-rule="evenodd" clip-rule="evenodd" d="M1.5 70.501H78.5V79.501H1.5V70.501Z" fill="white" stroke="black" stroke-linecap="round" stroke-linejoin="round"></path>
	                            <path fill-rule="evenodd" clip-rule="evenodd" d="M1.5 70.501L7 66.501H71L78.5 70.501H1.5Z" fill="white" stroke="black" stroke-linecap="round" stroke-linejoin="round"></path>
	                            <path fill-rule="evenodd" clip-rule="evenodd" d="M1.5 57.501H78.5V66.501H1.5V57.501Z" fill="white" stroke="black" stroke-linecap="round" stroke-linejoin="round"></path>
	                            <path fill-rule="evenodd" clip-rule="evenodd" d="M21 38.501H61L78.5 57.501H1.5L21 38.501Z" fill="white" stroke="black" stroke-linecap="round" stroke-linejoin="round"></path>
	                            <path fill-rule="evenodd" clip-rule="evenodd" d="M13 51.501H68H13Z" fill="white"></path>
	                            <path d="M13 51.501H68" stroke="black" stroke-linecap="round" stroke-linejoin="round"></path>
	                            <path fill-rule="evenodd" clip-rule="evenodd" d="M21 43.501H61H21Z" fill="white"></path>
	                            <path d="M21 43.501H61" stroke="black" stroke-linecap="round" stroke-linejoin="round"></path>
	                            <path fill-rule="evenodd" clip-rule="evenodd" d="M19.7 17.501H61.2L78.4 3.50098H1.39999L19.7 17.501Z" fill="white" stroke="black" stroke-linecap="round" stroke-linejoin="round"></path>
	                            <path fill-rule="evenodd" clip-rule="evenodd" d="M1.5 0.500977H78.5V3.50098H1.5V0.500977Z" fill="white" stroke="black" stroke-linecap="round" stroke-linejoin="round"></path>
	                            <path fill-rule="evenodd" clip-rule="evenodd" d="M51 52.3009V45.7009H62V52.3009C62 52.3009 62 52.3009 62 52.3009C62 53.516 59.5376 54.5009 56.5 54.5009C53.4624 54.5009 51 53.516 51 52.3009C51 52.3009 51 52.3009 51 52.3009Z" fill="url(#paint0_linear_6)"></path>
	                            <path d="M56.5 47.901C59.5376 47.901 62 46.916 62 45.701C62 44.486 59.5376 43.501 56.5 43.501C53.4624 43.501 51 44.486 51 45.701C51 46.916 53.4624 47.901 56.5 47.901Z" fill="url(#paint1_linear_6)"></path>
	                            <path fill-rule="evenodd" clip-rule="evenodd" d="M26 44.3009V37.7009H37V44.3009C37 44.3009 37 44.3009 37 44.3009C37 45.516 34.5376 46.5009 31.5 46.5009C28.4624 46.5009 26 45.516 26 44.3009C26 44.3009 26 44.3009 26 44.3009Z" fill="url(#paint2_linear_6)"></path>
	                            <path d="M31.5 39.901C34.5376 39.901 37 38.916 37 37.701C37 36.486 34.5376 35.501 31.5 35.501C28.4624 35.501 26 36.486 26 37.701C26 38.916 28.4624 39.901 31.5 39.901Z" fill="url(#paint3_linear_6)"></path>
	                        </g>
	                    </g>
	                    <defs>
	                        <linearGradient id="paint0_linear_6" x1="51" y1="50.1009" x2="62" y2="50.1009" gradientUnits="userSpaceOnUse">
	                            <stop stop-color="#2A46F0"></stop>
	                            <stop offset="1" stop-color="#0165DF"></stop>
	                        </linearGradient>
	                        <linearGradient id="paint1_linear_6" x1="51" y1="45.701" x2="62" y2="45.701" gradientUnits="userSpaceOnUse">
	                            <stop stop-color="#1E51FA"></stop>
	                            <stop offset="0.9941" stop-color="#008AFC"></stop>
	                        </linearGradient>
	                        <linearGradient id="paint2_linear_6" x1="26" y1="42.1009" x2="37" y2="42.1009" gradientUnits="userSpaceOnUse">
	                            <stop stop-color="#2A46F0"></stop>
	                            <stop offset="1" stop-color="#0165DF"></stop>
	                        </linearGradient>
	                        <linearGradient id="paint3_linear_6" x1="26" y1="37.701" x2="37" y2="37.701" gradientUnits="userSpaceOnUse">
	                            <stop stop-color="#1E51FA"></stop>
	                            <stop offset="0.9941" stop-color="#008AFC"></stop>
	                        </linearGradient>
	                        <clipPath id="clip0">
	                            <rect width="80" height="80" fill="white" transform="translate(0 0.000976562)"></rect>
	                        </clipPath>
	                        <clipPath id="clip1">
	                            <rect width="80" height="80" fill="white" transform="translate(0 0.000976562)"></rect>
	                        </clipPath>
	                    </defs>
	                </svg>