<svg width="80" height="80" viewBox="0 0 80 80" fill="none" xmlns="http://www.w3.org/2000/svg">
	                <g clip-path="url(#clip0_3)">
	                <path d="M79.5 72.5H0.5V79.5H79.5V72.5Z" fill="white" stroke="black" stroke-linejoin="round"></path>
	                <path d="M11.5 63.5H68.5L79.5 72.5H0.5L11.5 63.5Z" stroke="black" stroke-linejoin="round"></path>
	                <path fill-rule="evenodd" clip-rule="evenodd" d="M12.5 56.5H67.5L79.5 65.5H0.5L12.5 56.5Z" fill="white" stroke="black" stroke-linejoin="round"></path>
	                <path fill-rule="evenodd" clip-rule="evenodd" d="M65 34.3L42.1 8.90002L65 34.3Z" fill="white"></path>
	                <path d="M65 34.3L42.1 8.90002" stroke="black" stroke-linecap="round" stroke-linejoin="round"></path>
	                <path fill-rule="evenodd" clip-rule="evenodd" d="M64.5 35.6L20.5 47.5L64.5 35.6Z" fill="white"></path>
	                <path d="M64.5 35.6L20.5 47.5" stroke="black" stroke-linecap="round" stroke-linejoin="round"></path>
	                <path d="M41 16C45.4183 16 49 12.4183 49 8C49 3.58172 45.4183 0 41 0C36.5817 0 33 3.58172 33 8C33 12.4183 36.5817 16 41 16Z" fill="url(#paint0_linear_3)"></path>
	                <path d="M61 41C65.4183 41 69 37.4183 69 33C69 28.5817 65.4183 25 61 25C56.5817 25 53 28.5817 53 33C53 37.4183 56.5817 41 61 41Z" fill="url(#paint1_linear_3)"></path>
	                <path d="M22 55C26.4183 55 30 51.4183 30 47C30 42.5817 26.4183 39 22 39C17.5817 39 14 42.5817 14 47C14 51.4183 17.5817 55 22 55Z" fill="url(#paint2_linear_3)"></path>
	                </g>
	                <defs>
	                <linearGradient id="paint0_linear_3" x1="33" y1="8" x2="49" y2="8" gradientUnits="userSpaceOnUse">
	                <stop stop-color="#1E51FA"></stop>
	                <stop offset="0.9941" stop-color="#008AFC"></stop>
	                </linearGradient>
	                <linearGradient id="paint1_linear_3" x1="53" y1="33" x2="69" y2="33" gradientUnits="userSpaceOnUse">
	                <stop stop-color="#1E51FA"></stop>
	                <stop offset="0.9941" stop-color="#008AFC"></stop>
	                </linearGradient>
	                <linearGradient id="paint2_linear_3" x1="14" y1="47" x2="30" y2="47" gradientUnits="userSpaceOnUse">
	                <stop stop-color="#1E51FA"></stop>
	                <stop offset="0.9941" stop-color="#008AFC"></stop>
	                </linearGradient>
	                <clipPath id="clip0_3">
	                <rect width="80" height="80" fill="white"></rect>
	                </clipPath>
	                </defs>
	                </svg>